<?xml version="1.0" encoding="UTF-8"?>
<svg width="512px" height="512px" viewBox="0 0 512 512" version="1.1" xmlns="http://www.w3.org/2000/svg" xmlns:xlink="http://www.w3.org/1999/xlink">
    <!-- Generator: Sketch 59 (86127) - https://sketch.com -->
    <title>Icon</title>
    <desc>Created with Sketch.</desc>
    <defs>
        <linearGradient x1="50%" y1="0%" x2="50%" y2="100%" id="linearGradient-1">
            <stop stop-color="#818181" offset="0%"></stop>
            <stop stop-color="#222222" offset="100%"></stop>
        </linearGradient>
        <polygon id="path-2" points="0.286644981 49.9203067 20.3399164 0.286644981 172.342974 61.6998513 152.289619 111.333513"></polygon>
        <polygon id="path-4" points="25.2242565 124.398652 0.092760223 77.1330112 144.843625 0.167620818 169.975204 47.4332621"></polygon>
    </defs>
    <g id="Icon" stroke="none" stroke-width="1" fill="none" fill-rule="evenodd">
        <rect id="Background" fill="url(#linearGradient-1)" x="0" y="0" width="512" height="512" rx="114"></rect>
        <g id="Double-Pendulum" transform="translate(32.000000, 30.000000)">
            <g id="Group-15">
                <path d="M224.163569,2.09107807 C347.73474,2.09107807 447.908922,102.26526 447.908922,225.836431 C447.908922,349.407602 347.73474,449.581784 224.163569,449.581784 C100.592398,449.581784 0.418215613,349.407602 0.418215613,225.836431 C0.418215613,102.26526 100.592398,2.09107807 224.163569,2.09107807 L224.163569,7.94609665 C103.826041,7.94609665 6.2732342,105.498903 6.2732342,225.836431 C6.2732342,346.173959 103.826041,443.726766 224.163569,443.726766 C344.501097,443.726766 442.053903,346.173959 442.053903,225.836431 C442.053903,105.498903 344.501097,7.94609665 224.163569,7.94609665 L224.163569,2.09107807 Z" id="Fill-1" fill="#9B9B9B"></path>
                <path d="M224.163569,112.5 C286.757565,112.5 337.5,163.242435 337.5,225.836431 C337.5,288.430428 286.757565,339.172862 224.163569,339.172862 C161.569572,339.172862 110.827138,288.430428 110.827138,225.836431 C110.827138,163.242435 161.569572,112.5 224.163569,112.5 L224.163569,118.355019 C164.803216,118.355019 116.682156,166.476078 116.682156,225.836431 C116.682156,285.196784 164.803216,333.317844 224.163569,333.317844 C283.523922,333.317844 331.644981,285.196784 331.644981,225.836431 C331.644981,166.476078 283.523922,118.355019 224.163569,118.355019 L224.163569,112.5 Z" id="Fill-3" fill="#9B9B9B"></path>
                <path d="M219.054563,227.695651 L138.953225,7.6189684 C137.926255,4.7973513 139.381059,1.67746283 142.202677,0.650492565 C145.02421,-0.376477695 148.144099,1.07832714 149.171069,3.89994424 L229.272407,223.976626 C230.299377,226.798243 228.844572,229.918132 226.023039,230.945102 C223.201422,231.972072 220.081533,230.517184 219.054563,227.695651 Z" id="Fill-4" fill="#9B9B9B"></path>
                <path d="M219.0554,223.977212 L299.156822,3.90052974 C300.183792,1.07891264 303.30368,-0.375892193 306.125214,0.651078067 C308.946831,1.67804833 310.401636,4.7979368 309.374665,7.61947026 L229.273243,227.696236 C228.246273,230.51777 225.126468,231.972574 222.304851,230.945604 C219.483318,229.918634 218.028429,226.798829 219.0554,223.977212 Z" id="Fill-5" fill="#9B9B9B"></path>
                <path d="M218.84052,231.15948 C215.900716,228.219591 215.900716,223.453271 218.84052,220.513383 L224.163569,225.836431 L218.84052,231.15948 Z" id="Fill-6" fill="#FFFFFF"></path>
                <path d="M229.486617,220.513383 C232.426422,223.453271 232.426422,228.219591 229.486617,231.15948 L224.163569,225.836431 L229.486617,220.513383 Z" id="Fill-7" fill="#FFFFFF"></path>
                <path d="M218.84052,220.513383 C221.780409,217.573578 226.546729,217.573578 229.486617,220.513383 L224.163569,225.836431 L218.84052,220.513383 Z" id="Fill-8" fill="#000000"></path>
                <path d="M229.486617,231.15948 C226.546729,234.099284 221.780409,234.099284 218.84052,231.15948 L224.163569,225.836431 L229.486617,231.15948 Z" id="Fill-9" fill="#000000"></path>
                <path d="M384.813067,168.401208 C439.106738,199.747723 453.806933,275.573225 417.932732,337.709108 C382.058532,399.845007 309.041682,425.027024 254.748011,393.680534 C200.454257,362.334061 185.754061,286.508559 221.628262,224.372677 C257.502463,162.236794 330.519312,137.054777 384.813067,168.401208 L381.885558,173.471822 C330.563727,143.841162 261.040818,167.818216 226.698875,227.300186 C192.356933,286.782156 206.35369,358.979303 257.67552,388.609963 C308.997351,418.240614 378.520177,394.263602 412.862119,334.781599 C447.204061,275.299628 433.207388,203.102481 381.885558,173.471822 L384.813067,168.401208 Z" id="Fill-10" fill="#FF0000"></path>
                <path d="M392.007714,256.420874 C423.354145,310.714545 398.172128,383.731394 336.036245,419.605595 C273.900362,455.47977 198.074861,440.779609 166.728346,386.485929 C135.381914,332.192175 160.563931,259.175325 222.699814,223.301125 C284.835697,187.426924 360.661199,202.127119 392.007714,256.420874 L386.9371,259.348383 C357.306441,208.026552 285.109294,194.029796 225.627323,228.371738 C166.145353,262.71368 142.168299,332.236589 171.798959,383.55842 C201.429619,434.880209 273.626766,448.876949 333.108736,414.534998 C392.590706,380.193039 416.56776,310.670214 386.9371,259.348383 L392.007714,256.420874 Z" id="Fill-11" fill="#FF0000"></path>
                <path d="M354.228625,336.245353 C354.228625,398.938341 295.911887,449.581784 224.163569,449.581784 C152.415251,449.581784 94.098513,398.938341 94.098513,336.245353 C94.098513,273.552407 152.415251,222.908922 224.163569,222.908922 C295.911887,222.908922 354.228625,273.552407 354.228625,336.245353 L348.373606,336.245353 C348.373606,276.984033 292.847454,228.763941 224.163569,228.763941 C155.479684,228.763941 99.9535316,276.984033 99.9535316,336.245353 C99.9535316,395.506698 155.479684,443.726766 224.163569,443.726766 C292.847454,443.726766 348.373606,395.506698 348.373606,336.245353 L354.228625,336.245353 Z" id="Fill-12" fill="#FF0000"></path>
                <path d="M281.598792,386.485929 C250.252277,440.779609 174.426775,455.47977 112.290892,419.605595 C50.1549926,383.731394 24.9729758,310.714545 56.3194656,256.420874 C87.6659387,202.127119 163.491441,187.426924 225.627323,223.301125 C287.763206,259.175325 312.945223,332.192175 281.598792,386.485929 L276.528178,383.55842 C306.158838,332.236589 282.181784,262.71368 222.699814,228.371738 C163.217844,194.029796 91.020697,208.026552 61.3900372,259.348383 C31.7593857,310.670214 55.7363978,380.193039 115.218401,414.534998 C174.700372,448.876949 246.897519,434.880209 276.528178,383.55842 L281.598792,386.485929 Z" id="Fill-13" fill="#FF0000"></path>
                <path d="M193.579126,393.680534 C139.285455,425.027024 66.2686059,399.845007 30.3944052,337.709108 C-5.47977045,275.573225 9.22039126,199.747723 63.5140706,168.401208 C117.807825,137.054777 190.824675,162.236794 226.698875,224.372677 C262.573076,286.508559 247.872881,362.334061 193.579126,393.680534 L190.651617,388.609963 C241.973448,358.979303 255.970204,286.782156 221.628262,227.300186 C187.28632,167.818216 117.763411,143.841162 66.4415799,173.471822 C15.1197909,203.102481 1.12305112,275.299628 35.4650019,334.781599 C69.806961,394.263602 139.329786,418.240614 190.651617,388.609963 L193.579126,393.680534 Z" id="Fill-14" fill="#FF0000"></path>
            </g>
            <g id="Group-25" transform="translate(189.033457, 190.706320)">
                <mask id="mask-3" fill="white">
                    <use xlink:href="#path-2"></use>
                </mask>
                <g id="Clip-17"></g>
                <path d="M59.9469424,45.1567472 C54.4093494,58.8626766 38.8094052,65.4844517 25.1034758,59.9469424 C11.3975465,54.4093494 4.77577138,38.8094052 10.3132807,25.1034758 C15.8508736,11.3975465 31.4508178,4.77577138 45.1567472,10.3132807 C58.8626766,15.8508736 65.4844517,31.4508178 59.9469424,45.1567472 Z" id="Fill-16" fill="#C1C1C1" mask="url(#mask-3)"></path>
                <path d="M162.316338,86.5166822 C156.778745,100.222612 141.178801,106.844387 127.472872,101.306877 C113.766859,95.7692844 107.145084,80.1693401 112.682677,66.4634108 C118.220186,52.7573978 133.820214,46.1356227 147.526143,51.6732156 C161.232072,57.2108086 167.853848,72.8107528 162.316338,86.5166822 Z" id="Fill-18" fill="#C1C1C1" mask="url(#mask-3)"></path>
                <polygon id="Fill-19" fill="#C1C1C1" mask="url(#mask-3)" points="40.1434294 22.7217379 142.512825 64.0815892 132.48619 88.8984201 30.1167937 47.5384851"></polygon>
                <path d="M45.2119517,39.203448 C42.9622862,44.771487 36.6248141,47.4616171 31.0567751,45.2119517 C25.4887361,42.9622862 22.7986059,36.6248141 25.0482714,31.0567751 C27.2979368,25.4887361 33.6354089,22.7986059 39.203448,25.0482714 C44.771487,27.2979368 47.4616171,33.6354089 45.2119517,39.203448 Z M49.8651022,41.0834108 C53.1530297,32.9455204 49.2213011,23.6830483 41.0834108,20.3951208 C32.9455204,17.1071933 23.6830483,21.0389219 20.3951208,29.1768123 C17.1071933,37.3147026 21.0389219,46.5771747 29.1768123,49.8651022 C37.3147026,53.1530297 46.5771747,49.2213011 49.8651022,41.0834108 Z" id="Fill-24" fill="#EBEBEB" mask="url(#mask-3)"></path>
            </g>
            <g id="Group-35" transform="translate(290.241636, 178.996283)">
                <mask id="mask-5" fill="white">
                    <use xlink:href="#path-4"></use>
                </mask>
                <g id="Clip-27"></g>
                <path d="M59.9241078,75.6342937 C66.8639777,88.6863011 61.9091264,104.892993 48.857119,111.832862 C35.8050279,118.772732 19.5984201,113.817881 12.6584665,100.765874 C5.71859665,87.7137825 10.673448,71.5071747 23.725539,64.5672212 C36.7775465,57.6273513 52.9842379,62.5822026 59.9241078,75.6342937 Z" id="Fill-26" fill="#C1C1C1" mask="url(#mask-5)"></path>
                <path d="M157.409414,23.8003996 C164.349284,36.8524907 159.394433,53.0590985 146.342342,59.9989684 C133.290335,66.9389219 117.083727,61.983987 110.143773,48.9319796 C103.203903,35.8799721 108.158755,19.6732807 121.210846,12.7334108 C134.262853,5.79354089 150.469545,10.7483922 157.409414,23.8003996 Z" id="Fill-28" fill="#C1C1C1" mask="url(#mask-5)"></path>
                <polygon id="Fill-29" fill="#C1C1C1" mask="url(#mask-5)" points="30.0083922 76.3836524 127.493699 24.549842 140.059489 48.1826208 42.5741822 100.016431"></polygon>
                <path d="M119.378727,31.964303 C121.809814,24.0126022 130.226738,19.5371933 138.178439,21.9682807 L133.776636,36.3661896 L119.378727,31.964303 Z" id="Fill-30" fill="#FFFFFF" mask="url(#mask-5)"></path>
                <path d="M148.174461,40.7680762 C145.743374,48.7198606 137.32645,53.1951859 129.374749,50.7640985 L133.776636,36.3661896 L148.174461,40.7680762 Z" id="Fill-31" fill="#FFFFFF" mask="url(#mask-5)"></path>
                <path d="M138.178439,21.9682807 C146.130223,24.399368 150.605548,32.8163755 148.174461,40.7680762 L133.776636,36.3661896 L138.178439,21.9682807 Z" id="Fill-32" fill="#000000" mask="url(#mask-5)"></path>
                <path d="M129.374749,50.7640985 C121.422965,48.3330112 116.947639,39.9160874 119.378727,31.964303 L133.776636,36.3661896 L129.374749,50.7640985 Z" id="Fill-33" fill="#000000" mask="url(#mask-5)"></path>
                <path d="M45.8921375,83.0951766 C48.7114963,88.3975651 46.6985409,94.9815335 41.3961524,97.8008922 C36.0937639,100.620251 29.5097955,98.6072955 26.6905204,93.3049071 C23.8711617,88.0025186 25.8840335,81.4185502 31.1864219,78.5992751 C36.4888104,75.7799164 43.0727788,77.7927881 45.8921375,83.0951766 Z M50.3232993,80.7391171 C46.2027045,72.9894981 36.5799814,70.0475186 28.8303625,74.1681134 C21.0807435,78.2886245 18.1387639,87.9113476 22.2593587,95.6609665 C26.3798699,103.410669 36.0025929,106.352565 43.7522119,102.232054 C51.5019145,98.1114591 54.4438104,88.4887361 50.3232993,80.7391171 Z" id="Fill-34" fill="#EBEBEB" mask="url(#mask-5)"></path>
            </g>
        </g>
    </g>
</svg>